<?xml version="1.0" encoding="UTF-8" standalone="no"?>
<svg
   xmlns:dc="http://purl.org/dc/elements/1.1/"
   xmlns:cc="http://creativecommons.org/ns#"
   xmlns:rdf="http://www.w3.org/1999/02/22-rdf-syntax-ns#"
   xmlns:svg="http://www.w3.org/2000/svg"
   xmlns="http://www.w3.org/2000/svg"
   height="465.67624"
   width="903.74805"
   id="Layer_1"
   data-name="Layer 1"
   viewBox="0 0 903.74807 465.67625"
   version="1.1">
  <metadata
     id="metadata4735">
    <rdf:RDF>
      <cc:Work
         rdf:about="">
        <dc:format>image/svg+xml</dc:format>
        <dc:type
           rdf:resource="http://purl.org/dc/dcmitype/StillImage" />
        <dc:title>NSLB_badge</dc:title>
      </cc:Work>
    </rdf:RDF>
  </metadata>
  <defs
     id="defs4605">
    <style
       id="style4607">.cls-1{fill:#fff;}.cls-2,.cls-3{fill:#3bbedf;}.cls-3{stroke:#fff;stroke-miterlimit:10;stroke-width:4.18px;}.cls-4{fill:#1c75bc;}.cls-5{fill:#bee2d1;}</style>
  </defs>
  <title
     id="title4609">NSLB_badge</title>
  <g
     transform="matrix(1.5366729,0,0,1.5418881,1230.4409,-529.80587)"
     id="g3465">
    <g
       id="g3522" />
    <g
       id="g3608">
      <circle
         class="cls-3"
         cx="-627.89697"
         cy="772.5918"
         r="109.49748"
         id="circle3433"
         style="fill:#3bbedf;stroke:#ffffff;stroke-width:1.98693943px;stroke-miterlimit:10"
         transform="matrix(1.3667041,0,0,1.3667041,208.44028,-561.28743)" />
      <g
         transform="matrix(0.5074108,0,0,0.5074108,-831.0526,353.71332)"
         id="g3435">
        <path
           style="fill:#ffffff"
           id="path3437"
           transform="translate(-1.12,-4.21)"
           d="m 405.1,210.64 c 0,0 -31.35,9.68 -60.06,-6.86 -28.71,-16.54 -45.7,-6.87 -56.28,9.67 -10.58,16.54 -9.06,58.09 0,92 9.06,33.91 27,102.71 32.32,133 5.32,30.29 20.27,-1.17 20.94,-36.67 0.67,-35.5 2.27,-70.42 10.2,-82.28 14.45,-21.63 38,-2.43 37.39,46.89 -0.47,41.18 -2.72,107.59 11.58,91.86 8.38,-9.21 24.39,-110.06 33.46,-146.76 9.07,-36.7 23.89,-83.64 7.08,-114.19 -10.29,-18.7 -52.12,-21.28 -74.79,-4.74 0,0 -6,4.74 -2.93,-3.73 3.07,-8.47 20.23,-19.13 42.75,-18.83 22.52,0.3 35.74,6.15 47.64,18 11.9,11.85 13.69,50.92 -7.27,118.53 -20.96,67.61 -24.43,118.99 -34.69,146.47 -7.74,20.77 -25.15,22.49 -29.65,-2.82 -5.24,-29.49 -0.79,-84.36 -5.49,-103.56 -4.7,-19.2 -15.63,-13.81 -18.08,-7.16 -2.45,6.65 -7.93,17.75 -9.63,59.09 -1.7,41.34 -7.41,66.39 -16.1,69.82 -9.25,3.65 -19,-11.94 -23.87,-32.51 -4.87,-20.57 -20.09,-87.46 -34.82,-122.58 -14.73,-35.12 -26.27,-84.41 -11,-116.39 16.62,-34.69 54.77,-24.6 75.35,-7.46 20.58,17.14 33.24,19.36 43.06,19.56 9.82,0.2 31.01,-2.18 22.89,1.65 z"
           class="cls-1" />
        <ellipse
           style="fill:#1c75bc"
           id="ellipse3439"
           ry="33.400002"
           rx="27.91"
           cy="96.849998"
           cx="359.06"
           class="cls-4" />
        <path
           style="fill:#1c75bc"
           id="path3441"
           transform="translate(-1.12,-4.21)"
           d="m 325.12,132.81 c -31.3,-8.12 -74.32,13.87 -89.9,41 -9.16,15.94 -11.13,35.07 -8,53 1.12,6.49 9.68,41.45 19.36,35.94 -2.89,-17 -11.79,-34.63 -9.57,-52.11 2.27,-17.82 11.63,-35.3 27.27,-44.55 15.94,-9.42 33.85,-9.27 51.6,-11.46 10.85,-1.34 29.11,-16.64 9.27,-21.79 l 0,0 z M 228.47,232 c 0,0 0,0 0,0 l 0,0 z"
           class="cls-4" />
        <path
           style="fill:#1c75bc"
           id="path3443"
           transform="translate(-1.12,-4.21)"
           d="m 395.34,132.81 c -19.84,5.15 -1.58,20.45 9.27,21.79 17.75,2.19 35.67,2 51.6,11.46 15.65,9.25 25,26.73 27.27,44.55 2.23,17.48 -6.67,35.13 -9.57,52.11 9.69,5.51 18.25,-29.45 19.36,-35.94 3.09,-17.93 1.12,-37.06 -8,-53 -15.58,-27.1 -58.6,-49.09 -89.9,-41 l 0,0 z M 492,232.05 c 0,0 0,0 0,0 l 0,0 z"
           class="cls-4" />
        <ellipse
           style="fill:#bee2d1"
           id="ellipse3445"
           transform="matrix(0.17845876,-0.98394739,0.98394739,0.17845876,-103.36,475.46)"
           ry="23.24"
           rx="30.07"
           cy="301.06"
           cx="236.11"
           class="cls-5" />
        <path
           style="fill:#bee2d1"
           id="path3447"
           transform="translate(-1.12,-4.21)"
           d="m 262.72,353.23 c -25.82,-19.68 -40.51,-31.11 -47.6,33.55 -6.12,55.89 -7.55,111.8 -42.74,98.32 5,20.49 24.83,7.3 31.08,1.38 14.94,-14.17 19.35,-38.45 22.39,-71.94 2.19,-24.11 -0.06,-59.55 12.92,-67.11 7.7,-4.5 24.48,22.43 23.95,5.8 z"
           class="cls-5" />
        <ellipse
           style="fill:#bee2d1"
           id="ellipse3449"
           transform="matrix(0.98671431,-0.16246495,0.16246495,0.98671431,-43.21,78.36)"
           ry="30.07"
           rx="23.24"
           cy="298.70001"
           cx="483.95001"
           class="cls-5" />
        <path
           style="fill:#bee2d1"
           id="path3451"
           transform="translate(-1.12,-4.21)"
           d="m 456.5,350.43 c 26.14,-19.26 41,-30.45 47,34.32 5.22,56 5.73,111.9 41.14,99 -5.3,20.4 -24.95,6.9 -31.09,0.87 -14.7,-14.41 -18.73,-38.75 -21.22,-72.29 -1.8,-24.14 1,-59.55 -11.83,-67.31 -7.58,-4.62 -24.8,22.03 -24,5.41 z"
           class="cls-5" />
      </g>
      <g
         id="g3581"
         transform="translate(0,23.546917)">
        <text
           xml:space="preserve"
           style="font-style:normal;font-variant:normal;font-weight:bold;font-stretch:normal;font-size:51.9428978px;line-height:125%;font-family:'Open Sans';-inkscape-font-specification:'Open Sans Bold';letter-spacing:0px;word-spacing:0px;fill:#1c75bc;fill-opacity:1;stroke:none;stroke-width:1px;stroke-linecap:butt;stroke-linejoin:miter;stroke-opacity:1"
           x="-488.10556"
           y="385.66684"
           id="text3453"><tspan
             id="tspan3455"
             x="-488.10556"
             y="385.66684" /><tspan
             x="-488.10556"
             y="466.67773"
             id="tspan3457"
             style="font-style:normal;font-variant:normal;font-weight:normal;font-stretch:normal;font-size:68.33520508px;font-family:'Open Sans';-inkscape-font-specification:'Open Sans'">No</tspan></text>
        <text
           id="text3495"
           y="466.67773"
           x="-383.10187"
           style="font-style:normal;font-variant:normal;font-weight:bold;font-stretch:normal;font-size:78.45251465px;line-height:125%;font-family:'Open Sans';-inkscape-font-specification:'Open Sans Bold';letter-spacing:0px;word-spacing:0px;fill:#1c75bc;fill-opacity:1;stroke:none;stroke-width:1px;stroke-linecap:butt;stroke-linejoin:miter;stroke-opacity:1"
           xml:space="preserve"><tspan
             y="466.67773"
             x="-383.10187"
             id="tspan3503"
             style="font-style:normal;font-variant:normal;font-weight:normal;font-stretch:normal;font-size:68.33520508px;font-family:'Open Sans';-inkscape-font-specification:'Open Sans'">Smile</tspan></text>
        <g
           transform="translate(-295.46036,59.882518)"
           id="g3515">
          <text
             id="text3459"
             y="411.54242"
             x="-174.1268"
             style="font-style:normal;font-variant:normal;font-weight:normal;font-stretch:normal;font-size:44.41788483px;line-height:125%;font-family:'Open Sans';-inkscape-font-specification:'Open Sans';letter-spacing:0px;word-spacing:0px;fill:#1c75bc;fill-opacity:1;stroke:none;stroke-width:1px;stroke-linecap:butt;stroke-linejoin:miter;stroke-opacity:1"
             xml:space="preserve"><tspan
               y="411.54242"
               x="-174.1268"
               id="tspan3461" /><tspan
               id="tspan3463"
               y="467.06479"
               x="-174.1268"
               style="font-style:normal;font-variant:normal;font-weight:normal;font-stretch:normal;font-size:44.41788483px;font-family:'Open Sans';-inkscape-font-specification:'Open Sans'">Left</tspan></text>
          <text
             xml:space="preserve"
             style="font-style:normal;font-variant:normal;font-weight:normal;font-stretch:normal;font-size:44.41788483px;line-height:125%;font-family:'Open Sans';-inkscape-font-specification:'Open Sans';letter-spacing:0px;word-spacing:0px;fill:#1c75bc;fill-opacity:1;stroke:none;stroke-width:1px;stroke-linecap:butt;stroke-linejoin:miter;stroke-opacity:1"
             x="-75.10376"
             y="467.06479"
             id="text3507"><tspan
               style="font-style:normal;font-variant:normal;font-weight:normal;font-stretch:normal;font-size:44.41788483px;font-family:'Open Sans';-inkscape-font-specification:'Open Sans'"
               x="-75.10376"
               y="467.06479"
               id="tspan3511">Behind</tspan></text>
          <flowRoot
             style="font-style:normal;font-weight:normal;font-size:30px;line-height:125%;font-family:Sans;letter-spacing:0px;word-spacing:0px;fill:#000000;fill-opacity:1;stroke:none;stroke-width:1px;stroke-linecap:butt;stroke-linejoin:miter;stroke-opacity:1"
             id="flowRoot3568"
             xml:space="preserve"><flowRegion
               id="flowRegion3570"><rect
                 y="644.04346"
                 x="-522.19812"
                 height="284.70908"
                 width="313.87439"
                 id="rect3572" /></flowRegion><flowPara
               id="flowPara3574"></flowPara></flowRoot>        </g>
      </g>
    </g>
  </g>
</svg>
