<?xml version="1.0" encoding="UTF-8" standalone="no"?>
<svg
   xmlns:dc="http://purl.org/dc/elements/1.1/"
   xmlns:cc="http://creativecommons.org/ns#"
   xmlns:rdf="http://www.w3.org/1999/02/22-rdf-syntax-ns#"
   xmlns:svg="http://www.w3.org/2000/svg"
   xmlns="http://www.w3.org/2000/svg"
   xmlns:sodipodi="http://sodipodi.sourceforge.net/DTD/sodipodi-0.dtd"
   xmlns:inkscape="http://www.inkscape.org/namespaces/inkscape"
   preserveAspectRatio="xMidYMid"
   id="Layer_1"
   data-name="Layer 1"
   viewBox="0 0 516.68 153.8"
   version="1.1"
   inkscape:version="0.91 r13725"
   sodipodi:docname="NSLB-horizontal.svg">
  <metadata
     id="metadata185">
    <rdf:RDF>
      <cc:Work
         rdf:about="">
        <dc:format>image/svg+xml</dc:format>
        <dc:type
           rdf:resource="http://purl.org/dc/dcmitype/StillImage" />
      </cc:Work>
    </rdf:RDF>
  </metadata>
  <sodipodi:namedview
     pagecolor="#ffffff"
     bordercolor="#666666"
     borderopacity="1"
     objecttolerance="10"
     gridtolerance="10"
     guidetolerance="10"
     inkscape:pageopacity="0"
     inkscape:pageshadow="2"
     inkscape:window-width="1920"
     inkscape:window-height="1056"
     id="namedview183"
     showgrid="false"
     inkscape:zoom="2.1155352"
     inkscape:cx="258.34"
     inkscape:cy="76.900002"
     inkscape:window-x="0"
     inkscape:window-y="24"
     inkscape:window-maximized="1"
     inkscape:current-layer="Layer_1" />
  <defs
     id="defs3">
    <style
       id="style5">.cls-1{fill:#fff;}.cls-2{fill:#b8dbd2;}.cls-3{fill:#0055b8;}.cls-4{fill:#4ec1e0;}</style>
  </defs>
  <title
     id="title7">NSLB-horizontal</title>
  <path
     class="cls-3"
     d="M169.55,57.92H173V84h-3.43l-13.8-20.73V84h-3.43V57.92h3.43l13.8,20.73V57.92Z"
     id="path13" />
  <path
     class="cls-3"
     d="M180.13,81.44a10.64,10.64,0,0,1-2.85-7.73,10.44,10.44,0,0,1,3-7.75,10.89,10.89,0,0,1,14.93,0,10.42,10.42,0,0,1,3,7.73,10.18,10.18,0,0,1-3.11,7.73,10.61,10.61,0,0,1-7.59,3A9.75,9.75,0,0,1,180.13,81.44Zm7.33,0.11a6.94,6.94,0,0,0,5-2.09,7.74,7.74,0,0,0,2.13-5.79,7.88,7.88,0,0,0-2-5.77,6.68,6.68,0,0,0-5-2.07,6.44,6.44,0,0,0-4.88,2.07,8.09,8.09,0,0,0-2,5.79,8.29,8.29,0,0,0,1.88,5.79A6.18,6.18,0,0,0,187.46,81.55Z"
     id="path15" />
  <path
     class="cls-3"
     d="M210.53,64.89a3.57,3.57,0,0,0,.79,2.37,4.69,4.69,0,0,0,2,1.39,22.17,22.17,0,0,0,2.77.79q1.53,0.34,3.05.77A13.47,13.47,0,0,1,222,71.33a5.28,5.28,0,0,1,2,2,6.56,6.56,0,0,1,.79,3.35A7.16,7.16,0,0,1,222.44,82a8.69,8.69,0,0,1-6.31,2.26,10.65,10.65,0,0,1-6.46-1.83,5.83,5.83,0,0,1-2.49-5h3.66a4.09,4.09,0,0,0,1.41,2.87A5.59,5.59,0,0,0,216,81.47a5.81,5.81,0,0,0,4-1.28,3.87,3.87,0,0,0,1.47-3,3.94,3.94,0,0,0-.79-2.64,4.76,4.76,0,0,0-2-1.38,20.25,20.25,0,0,0-2.77-.77q-1.53-.32-3.05-0.77A13.48,13.48,0,0,1,210,70.49a5.37,5.37,0,0,1-2-2.07,6.75,6.75,0,0,1-.79-3.41,6.68,6.68,0,0,1,2.36-5.33,9.12,9.12,0,0,1,6.14-2,9.54,9.54,0,0,1,6,1.75,6.81,6.81,0,0,1,2.58,4.84h-3.81A3.85,3.85,0,0,0,219,61.61a5.28,5.28,0,0,0-3.51-1.09,5.6,5.6,0,0,0-3.6,1.11A3.92,3.92,0,0,0,210.53,64.89Z"
     id="path17" />
  <path
     class="cls-3"
     d="M233.3,63.34V66.7A7.2,7.2,0,0,1,240,63a8.21,8.21,0,0,1,4.3,1.15,7.2,7.2,0,0,1,2.9,3.34,8.46,8.46,0,0,1,3.07-3.3A8.32,8.32,0,0,1,254.75,63a7.9,7.9,0,0,1,5.8,2.28,8.76,8.76,0,0,1,2.3,6.5V84h-3.39V72.35a6.68,6.68,0,0,0-1.53-4.75,6.16,6.16,0,0,0-8.33,0,6.68,6.68,0,0,0-1.53,4.75V84h-3.39V72.35a6.74,6.74,0,0,0-1.51-4.75A5.41,5.41,0,0,0,239,66a5.47,5.47,0,0,0-4.18,1.62,6.68,6.68,0,0,0-1.53,4.75V84h-3.43V63.34h3.43Z"
     id="path19" />
  <path
     class="cls-3"
     d="M271.71,59.35A2.26,2.26,0,0,1,270,60a2.19,2.19,0,0,1-1.64-.68,2.29,2.29,0,0,1-.66-1.66,2.26,2.26,0,0,1,.68-1.66,2.32,2.32,0,0,1,3.28,0A2.37,2.37,0,0,1,271.71,59.35ZM268.31,84V63.34h3.43V84h-3.43Z"
     id="path21" />
  <path
     class="cls-3"
     d="M277.4,84V56.14h3.43V84H277.4Z"
     id="path23" />
  <path
     class="cls-3"
     d="M295.15,84.38a9.52,9.52,0,0,1-7.24-2.94,10.81,10.81,0,0,1-2.79-7.76A10.67,10.67,0,0,1,288,65.93a10.75,10.75,0,0,1,14.57-.15,9.64,9.64,0,0,1,2.73,7.07,12.93,12.93,0,0,1-.15,2H288.63a7.11,7.11,0,0,0,1.94,4.88,6.2,6.2,0,0,0,4.58,1.79,6.4,6.4,0,0,0,3.56-.94,5.59,5.59,0,0,0,2.13-2.49h3.69a9.5,9.5,0,0,1-3.37,4.49A9.83,9.83,0,0,1,295.15,84.38Zm4.64-16.75a6.76,6.76,0,0,0-9.12,0,7,7,0,0,0-2,4.81h13A6.46,6.46,0,0,0,299.79,67.62Z"
     id="path25" />
  <path
     class="cls-3"
     d="M315.66,57.92h3.43V81.4h9.16V84H315.66V57.92Z"
     id="path27" />
  <path
     class="cls-3"
     d="M340.5,84.38a9.52,9.52,0,0,1-7.24-2.94,10.81,10.81,0,0,1-2.79-7.76,10.67,10.67,0,0,1,2.83-7.75,10.75,10.75,0,0,1,14.57-.15,9.64,9.64,0,0,1,2.73,7.07,13,13,0,0,1-.15,2H334a7.11,7.11,0,0,0,1.94,4.88,6.2,6.2,0,0,0,4.58,1.79,6.4,6.4,0,0,0,3.56-.94,5.59,5.59,0,0,0,2.13-2.49h3.69a9.5,9.5,0,0,1-3.37,4.49A9.83,9.83,0,0,1,340.5,84.38Zm4.64-16.75a6.76,6.76,0,0,0-9.12,0,7,7,0,0,0-2,4.81h13A6.46,6.46,0,0,0,345.13,67.62Z"
     id="path29" />
  <path
     class="cls-3"
     d="M363.37,63.34v2.79H359V84h-3.47V66.13H352.9V63.34h2.68V61.61q0-3.39,1.81-4.94t5.69-1.55v2.79a4.54,4.54,0,0,0-3.15.85,3.82,3.82,0,0,0-.89,2.85v1.73h4.33Z"
     id="path31" />
  <path
     class="cls-3"
     d="M374.08,81.25h2.83V84h-3.47Q368,84,368,78.72V66.13h-2.68V63.34H368V58.22h3.47v5.13h5.35v2.79h-5.35V78.72a2.73,2.73,0,0,0,.57,2A2.79,2.79,0,0,0,374.08,81.25Z"
     id="path33" />
  <path
     class="cls-3"
     d="M386.82,57.92h9.35a9,9,0,0,1,6.18,1.94,6.38,6.38,0,0,1,2.19,5q0,4.37-5,5.77a6.56,6.56,0,0,1,5.62,6.52,6.19,6.19,0,0,1-2.32,4.94,9.28,9.28,0,0,1-6.2,2h-9.8V57.92Zm3.43,2.75v8.59H396a5.52,5.52,0,0,0,3.71-1.15A3.91,3.91,0,0,0,401.07,65a4,4,0,0,0-1.34-3.15A5.46,5.46,0,0,0,396,60.67h-5.77Zm0,20.66h6.18a5.7,5.7,0,0,0,3.9-1.24,4.31,4.31,0,0,0,1.41-3.41,4.16,4.16,0,0,0-1.53-3.41A6.22,6.22,0,0,0,396.17,72h-5.92v9.31Z"
     id="path35" />
  <path
     class="cls-3"
     d="M418.56,84.38a9.52,9.52,0,0,1-7.24-2.94,10.81,10.81,0,0,1-2.79-7.76,10.67,10.67,0,0,1,2.83-7.75,10.75,10.75,0,0,1,14.57-.15,9.64,9.64,0,0,1,2.73,7.07,13,13,0,0,1-.15,2H412A7.11,7.11,0,0,0,414,79.76a6.2,6.2,0,0,0,4.58,1.79,6.4,6.4,0,0,0,3.56-.94,5.59,5.59,0,0,0,2.13-2.49h3.69a9.5,9.5,0,0,1-3.37,4.49A9.83,9.83,0,0,1,418.56,84.38Zm4.64-16.75a6.76,6.76,0,0,0-9.12,0,7,7,0,0,0-2,4.81h13A6.46,6.46,0,0,0,423.19,67.62Z"
     id="path37" />
  <path
     class="cls-3"
     d="M436.35,56.14V66.7A7.2,7.2,0,0,1,443.09,63a7.81,7.81,0,0,1,5.73,2.28,8.76,8.76,0,0,1,2.3,6.5V84h-3.39V72.35a6.74,6.74,0,0,0-1.51-4.75A5.41,5.41,0,0,0,442.06,66a5.47,5.47,0,0,0-4.18,1.62,6.68,6.68,0,0,0-1.53,4.75V84h-3.43V56.14h3.43Z"
     id="path39" />
  <path
     class="cls-3"
     d="M460,59.35a2.26,2.26,0,0,1-1.66.68,2.19,2.19,0,0,1-1.64-.68,2.29,2.29,0,0,1-.66-1.66A2.32,2.32,0,1,1,460,59.35ZM456.59,84V63.34H460V84h-3.43Z"
     id="path41" />
  <path
     class="cls-3"
     d="M469.1,63.34V66.7A7.2,7.2,0,0,1,475.85,63a7.81,7.81,0,0,1,5.73,2.28,8.76,8.76,0,0,1,2.3,6.5V84h-3.39V72.35A6.74,6.74,0,0,0,479,67.6,5.41,5.41,0,0,0,474.81,66a5.47,5.47,0,0,0-4.18,1.62,6.68,6.68,0,0,0-1.53,4.75V84h-3.43V63.34h3.43Z"
     id="path43" />
  <path
     class="cls-3"
     d="M490.81,81.34A10.94,10.94,0,0,1,488,73.58a10.58,10.58,0,0,1,2.81-7.65A9.39,9.39,0,0,1,497.86,63a8.49,8.49,0,0,1,4.62,1.24,8.15,8.15,0,0,1,3,3.24V56.14h3.47V84h-3.47V79.82a8.21,8.21,0,0,1-3,3.3,8.39,8.39,0,0,1-4.62,1.26A9.24,9.24,0,0,1,490.81,81.34Zm12.61-2a8.7,8.7,0,0,0,0-11.23A6.64,6.64,0,0,0,498.48,66a6.76,6.76,0,0,0-4.94,2,7.45,7.45,0,0,0-2.05,5.54,7.93,7.93,0,0,0,2.07,5.69A6.73,6.73,0,0,0,503.42,79.33Z"
     id="path45" />
  <path
     class="cls-4"
     d="M154.23,107.2a5.76,5.76,0,0,1,0-7.38,4.42,4.42,0,0,1,3.38-1.43,3.49,3.49,0,0,1,3.13,1.69v-4.9h2.52v13.32h-2.52v-1.67a3.53,3.53,0,0,1-3.15,1.82A4.38,4.38,0,0,1,154.23,107.2Zm5.72-1.53a3.32,3.32,0,0,0,0-4.3,2.59,2.59,0,0,0-3.7,0,2.88,2.88,0,0,0-.78,2.14,2.92,2.92,0,0,0,.79,2.16A2.56,2.56,0,0,0,159.94,105.67Z"
     id="path47" />
  <path
     class="cls-4"
     d="M170.17,108.65a4.71,4.71,0,0,1-3.55-1.41,5.14,5.14,0,0,1-1.37-3.74,5.06,5.06,0,0,1,1.38-3.72,4.79,4.79,0,0,1,3.56-1.4,5,5,0,0,1,3.59,1.36,4.82,4.82,0,0,1,1.4,3.63,6.18,6.18,0,0,1-.07,1h-7.27a2.37,2.37,0,0,0,.72,1.57,2.24,2.24,0,0,0,1.6.59,2.1,2.1,0,0,0,1.94-1.08h2.74a4.38,4.38,0,0,1-1.67,2.32A5,5,0,0,1,170.17,108.65Zm1.67-7.53a2.38,2.38,0,0,0-1.63-.59,2.25,2.25,0,0,0-1.59.59,2.52,2.52,0,0,0-.77,1.58h4.72A2.17,2.17,0,0,0,171.84,101.12Z"
     id="path49" />
  <path
     class="cls-4"
     d="M177.19,108.51V95.18h2.54v13.32h-2.54Z"
     id="path51" />
  <path
     class="cls-4"
     d="M185.24,96a1.54,1.54,0,1,1-.45-1.1A1.49,1.49,0,0,1,185.24,96Zm-2.81,12.51v-10H185v10h-2.54Z"
     id="path53" />
  <path
     class="cls-4"
     d="M186.45,98.53h2.7l2.57,7.8,2.56-7.8H197l-3.67,10h-3.19Z"
     id="path55" />
  <path
     class="cls-4"
     d="M202.67,108.65a4.71,4.71,0,0,1-3.55-1.41,5.14,5.14,0,0,1-1.37-3.74,5.06,5.06,0,0,1,1.38-3.72,4.79,4.79,0,0,1,3.56-1.4,5,5,0,0,1,3.59,1.36,4.82,4.82,0,0,1,1.4,3.63,6.18,6.18,0,0,1-.07,1h-7.27a2.37,2.37,0,0,0,.72,1.57,2.24,2.24,0,0,0,1.6.59,2.1,2.1,0,0,0,1.94-1.08h2.74a4.38,4.38,0,0,1-1.67,2.32A5,5,0,0,1,202.67,108.65Zm1.67-7.53a2.38,2.38,0,0,0-1.63-.59,2.25,2.25,0,0,0-1.59.59,2.52,2.52,0,0,0-.77,1.58h4.72A2.17,2.17,0,0,0,204.33,101.12Z"
     id="path57" />
  <path
     class="cls-4"
     d="M212.23,98.53v1.76a3.16,3.16,0,0,1,2.92-1.91V101h-0.63a2.34,2.34,0,0,0-1.71.57,2.68,2.68,0,0,0-.58,2v5h-2.54v-10h2.54Z"
     id="path59" />
  <path
     class="cls-4"
     d="M219.76,96a1.54,1.54,0,1,1-.45-1.1A1.49,1.49,0,0,1,219.76,96Zm-2.81,12.51v-10h2.54v10h-2.54Z"
     id="path61" />
  <path
     class="cls-4"
     d="M224.72,98.53V100a3.31,3.31,0,0,1,3.1-1.64,3.7,3.7,0,0,1,2.79,1.13,4.32,4.32,0,0,1,1.08,3.12v5.87h-2.52V103a2.49,2.49,0,0,0-.59-1.79,2.14,2.14,0,0,0-1.62-.62,2.17,2.17,0,0,0-1.63.62,2.47,2.47,0,0,0-.6,1.79v5.51h-2.54v-10h2.54Z"
     id="path63" />
  <path
     class="cls-4"
     d="M234.94,107.2a5.76,5.76,0,0,1,0-7.38,4.42,4.42,0,0,1,3.38-1.43,3.49,3.49,0,0,1,3.13,1.69V98.53H244v10a5,5,0,0,1-1.26,3.5,4.59,4.59,0,0,1-3.54,1.36,6.18,6.18,0,0,1-3.62-.94A3.58,3.58,0,0,1,234,109.8h2.48a2,2,0,0,0,.9,1.05,3.29,3.29,0,0,0,1.67.39,2.3,2.3,0,0,0,1.68-.67,2.69,2.69,0,0,0,.67-2v-1.75a3.53,3.53,0,0,1-3.15,1.82A4.38,4.38,0,0,1,234.94,107.2Zm5.72-1.53a3.32,3.32,0,0,0,0-4.3,2.59,2.59,0,0,0-3.7,0,2.88,2.88,0,0,0-.78,2.14,2.92,2.92,0,0,0,.79,2.16A2.56,2.56,0,0,0,240.66,105.67Z"
     id="path65" />
  <path
     class="cls-4"
     d="M252.74,107.25a5.76,5.76,0,0,1,0-7.45,4.73,4.73,0,0,1,3.55-1.4,5.07,5.07,0,0,1,3,.88,4.27,4.27,0,0,1,1.64,2.5h-2.74a1.89,1.89,0,0,0-1.94-1.24,2.05,2.05,0,0,0-1.72.8,4.16,4.16,0,0,0,0,4.38,2.05,2.05,0,0,0,1.72.8,1.91,1.91,0,0,0,1.94-1.26H261a4.48,4.48,0,0,1-1.67,2.48,4.91,4.91,0,0,1-3,.92A4.73,4.73,0,0,1,252.74,107.25Z"
     id="path67" />
  <path
     class="cls-4"
     d="M263.65,107.23a5,5,0,0,1-1.46-3.73,4.88,4.88,0,0,1,1.48-3.71,5.48,5.48,0,0,1,7.33,0,5.41,5.41,0,0,1,0,7.44,5.12,5.12,0,0,1-3.68,1.42A5,5,0,0,1,263.65,107.23Zm3.65-.72a2.47,2.47,0,0,0,1.83-.78,3.59,3.59,0,0,0,0-4.42,2.46,2.46,0,0,0-1.83-.77,2.4,2.4,0,0,0-1.81.77,3.69,3.69,0,0,0,0,4.43A2.39,2.39,0,0,0,267.3,106.51Z"
     id="path69" />
  <path
     class="cls-4"
     d="M277,98.53V100a3.31,3.31,0,0,1,3.1-1.64,3.94,3.94,0,0,1,2,.52,3.5,3.5,0,0,1,1.38,1.49,3.89,3.89,0,0,1,3.48-2,3.83,3.83,0,0,1,2.87,1.12,4.3,4.3,0,0,1,1.09,3.13v5.87h-2.52V103a2.49,2.49,0,0,0-.59-1.79,2.14,2.14,0,0,0-1.62-.62,2.17,2.17,0,0,0-1.63.62A2.47,2.47,0,0,0,284,103v5.51h-2.52V103a2.49,2.49,0,0,0-.59-1.79,2.14,2.14,0,0,0-1.62-.62,2.17,2.17,0,0,0-1.63.62A2.47,2.47,0,0,0,277,103v5.51h-2.54v-10H277Z"
     id="path71" />
  <path
     class="cls-4"
     d="M296.11,100.08a3.45,3.45,0,0,1,3.12-1.69,4.43,4.43,0,0,1,3.38,1.43,5.79,5.79,0,0,1,0,7.39,4.38,4.38,0,0,1-3.36,1.44,3.5,3.5,0,0,1-3.14-1.82v6.43h-2.54V98.53h2.54v1.55Zm4.47,5.58a2.94,2.94,0,0,0,.78-2.16,2.88,2.88,0,0,0-.78-2.14,2.58,2.58,0,0,0-3.69,0,3.35,3.35,0,0,0,0,4.3A2.56,2.56,0,0,0,300.59,105.66Z"
     id="path73" />
  <path
     class="cls-4"
     d="M306.58,107.2a5.77,5.77,0,0,1,0-7.38A4.42,4.42,0,0,1,310,98.39a3.49,3.49,0,0,1,3.13,1.69V98.53h2.52v10h-2.52v-1.67a3.53,3.53,0,0,1-3.15,1.82A4.38,4.38,0,0,1,306.58,107.2Zm5.72-1.53a3.32,3.32,0,0,0,0-4.3,2.59,2.59,0,0,0-3.7,0,2.88,2.88,0,0,0-.78,2.14,2.92,2.92,0,0,0,.79,2.16A2.56,2.56,0,0,0,312.3,105.67Z"
     id="path75" />
  <path
     class="cls-4"
     d="M317.75,101.45a2.69,2.69,0,0,1,1.1-2.18,5.28,5.28,0,0,1,5.83,0,3.07,3.07,0,0,1,1.17,2.37h-2.59a1.32,1.32,0,0,0-1.55-1.26,1.87,1.87,0,0,0-1.12.29,0.93,0.93,0,0,0-.4.79,0.88,0.88,0,0,0,.59.79,5.83,5.83,0,0,0,1.44.45q0.85,0.16,1.68.4a3.17,3.17,0,0,1,1.43.86,2.29,2.29,0,0,1,.59,1.65,2.61,2.61,0,0,1-1.14,2.2,5.46,5.46,0,0,1-5.82,0,3.09,3.09,0,0,1-1.24-2.4h2.59a1.37,1.37,0,0,0,1.6,1.26,1.88,1.88,0,0,0,1.13-.31,1,1,0,0,0,.43-0.83,0.9,0.9,0,0,0-.59-0.81,5.55,5.55,0,0,0-1.44-.46q-0.85-.16-1.68-0.4a3.17,3.17,0,0,1-1.43-.84A2.15,2.15,0,0,1,317.75,101.45Z"
     id="path77" />
  <path
     class="cls-4"
     d="M327.55,101.45a2.69,2.69,0,0,1,1.1-2.18,5.28,5.28,0,0,1,5.83,0,3.07,3.07,0,0,1,1.17,2.37h-2.59a1.32,1.32,0,0,0-1.55-1.26,1.87,1.87,0,0,0-1.12.29,0.93,0.93,0,0,0-.4.79,0.88,0.88,0,0,0,.59.79,5.83,5.83,0,0,0,1.44.45q0.85,0.16,1.68.4a3.17,3.17,0,0,1,1.43.86,2.29,2.29,0,0,1,.59,1.65,2.61,2.61,0,0,1-1.14,2.2,5.46,5.46,0,0,1-5.82,0,3.09,3.09,0,0,1-1.24-2.4h2.59a1.37,1.37,0,0,0,1.6,1.26,1.88,1.88,0,0,0,1.13-.31,1,1,0,0,0,.43-0.83,0.9,0.9,0,0,0-.59-0.81,5.55,5.55,0,0,0-1.44-.46q-0.85-.16-1.68-0.4a3.17,3.17,0,0,1-1.43-.84A2.15,2.15,0,0,1,327.55,101.45Z"
     id="path79" />
  <path
     class="cls-4"
     d="M340.71,96a1.54,1.54,0,1,1-.45-1.1A1.49,1.49,0,0,1,340.71,96Zm-2.81,12.51v-10h2.54v10H337.9Z"
     id="path81" />
  <path
     class="cls-4"
     d="M343.91,107.23a5,5,0,0,1-1.46-3.73,4.88,4.88,0,0,1,1.48-3.71,5.48,5.48,0,0,1,7.33,0,5.41,5.41,0,0,1,0,7.44,5.12,5.12,0,0,1-3.68,1.42A5,5,0,0,1,343.91,107.23Zm3.65-.72a2.47,2.47,0,0,0,1.83-.78,3.59,3.59,0,0,0,0-4.42,2.46,2.46,0,0,0-1.83-.77,2.4,2.4,0,0,0-1.81.77,3.69,3.69,0,0,0,0,4.43A2.39,2.39,0,0,0,347.57,106.51Z"
     id="path83" />
  <path
     class="cls-4"
     d="M357.29,98.53V100a3.31,3.31,0,0,1,3.1-1.64,3.7,3.7,0,0,1,2.79,1.13,4.32,4.32,0,0,1,1.08,3.12v5.87h-2.52V103a2.49,2.49,0,0,0-.59-1.79,2.14,2.14,0,0,0-1.62-.62,2.17,2.17,0,0,0-1.63.62,2.47,2.47,0,0,0-.6,1.79v5.51h-2.54v-10h2.54Z"
     id="path85" />
  <path
     class="cls-4"
     d="M367.51,107.2a5.77,5.77,0,0,1,0-7.38,4.42,4.42,0,0,1,3.38-1.43,3.49,3.49,0,0,1,3.13,1.69V98.53h2.52v10H374v-1.67a3.53,3.53,0,0,1-3.15,1.82A4.38,4.38,0,0,1,367.51,107.2Zm5.72-1.53a3.32,3.32,0,0,0,0-4.3,2.59,2.59,0,0,0-3.7,0,2.88,2.88,0,0,0-.78,2.14,2.92,2.92,0,0,0,.79,2.16A2.56,2.56,0,0,0,373.23,105.67Z"
     id="path87" />
  <path
     class="cls-4"
     d="M383.11,106.38h1.21v2.12h-1.6a3.54,3.54,0,0,1-2.36-.7,2.89,2.89,0,0,1-.83-2.32V100.6h-1.06V98.53h1.06V96.06h2.54v2.47h2.23v2.07h-2.23v4.88a0.89,0.89,0,0,0,.23.69A1.23,1.23,0,0,0,383.11,106.38Z"
     id="path89" />
  <path
     class="cls-4"
     d="M390.51,108.65a4.72,4.72,0,0,1-3.55-1.41,5.14,5.14,0,0,1-1.37-3.74A5.06,5.06,0,0,1,387,99.78a4.79,4.79,0,0,1,3.57-1.4,5,5,0,0,1,3.59,1.36,4.82,4.82,0,0,1,1.4,3.63,6.18,6.18,0,0,1-.07,1h-7.27a2.37,2.37,0,0,0,.72,1.57,2.24,2.24,0,0,0,1.6.59,2.1,2.1,0,0,0,1.94-1.08h2.74a4.38,4.38,0,0,1-1.67,2.32A5,5,0,0,1,390.51,108.65Zm1.67-7.53a2.38,2.38,0,0,0-1.63-.59,2.25,2.25,0,0,0-1.59.59,2.51,2.51,0,0,0-.76,1.58h4.72A2.17,2.17,0,0,0,392.17,101.12Z"
     id="path91" />
  <path
     class="cls-4"
     d="M403.57,107.2a5.77,5.77,0,0,1,0-7.38,4.42,4.42,0,0,1,3.38-1.43,3.49,3.49,0,0,1,3.13,1.69v-4.9h2.52v13.32h-2.52v-1.67a3.53,3.53,0,0,1-3.15,1.82A4.38,4.38,0,0,1,403.57,107.2Zm5.72-1.53a3.32,3.32,0,0,0,0-4.3,2.59,2.59,0,0,0-3.7,0,2.88,2.88,0,0,0-.78,2.14,2.92,2.92,0,0,0,.79,2.16A2.56,2.56,0,0,0,409.29,105.67Z"
     id="path93" />
  <path
     class="cls-4"
     d="M419.52,108.65a4.72,4.72,0,0,1-3.55-1.41,5.14,5.14,0,0,1-1.37-3.74A5.06,5.06,0,0,1,416,99.78a4.79,4.79,0,0,1,3.57-1.4,5,5,0,0,1,3.59,1.36,4.82,4.82,0,0,1,1.4,3.63,6.18,6.18,0,0,1-.07,1h-7.27a2.37,2.37,0,0,0,.72,1.57,2.24,2.24,0,0,0,1.6.59,2.1,2.1,0,0,0,1.94-1.08h2.74a4.38,4.38,0,0,1-1.67,2.32A5,5,0,0,1,419.52,108.65Zm1.67-7.53a2.38,2.38,0,0,0-1.63-.59,2.25,2.25,0,0,0-1.59.59,2.51,2.51,0,0,0-.76,1.58h4.72A2.17,2.17,0,0,0,421.18,101.12Z"
     id="path95" />
  <path
     class="cls-4"
     d="M429.07,98.53V100a3.31,3.31,0,0,1,3.1-1.64A3.7,3.7,0,0,1,435,99.51a4.32,4.32,0,0,1,1.08,3.12v5.87h-2.52V103a2.49,2.49,0,0,0-.59-1.79,2.14,2.14,0,0,0-1.62-.62,2.17,2.17,0,0,0-1.63.62,2.47,2.47,0,0,0-.6,1.79v5.51h-2.54v-10h2.54Z"
     id="path97" />
  <path
     class="cls-4"
     d="M442.53,106.38h1.21v2.12h-1.6a3.54,3.54,0,0,1-2.36-.7,2.89,2.89,0,0,1-.83-2.32V100.6h-1.06V98.53h1.06V96.06h2.54v2.47h2.23v2.07h-2.23v4.88a0.89,0.89,0,0,0,.23.69A1.23,1.23,0,0,0,442.53,106.38Z"
     id="path99" />
  <path
     class="cls-4"
     d="M446.35,107.2a5.77,5.77,0,0,1,0-7.38,4.42,4.42,0,0,1,3.38-1.43,3.49,3.49,0,0,1,3.13,1.69V98.53h2.52v10h-2.52v-1.67a3.53,3.53,0,0,1-3.15,1.82A4.38,4.38,0,0,1,446.35,107.2Zm5.72-1.53a3.32,3.32,0,0,0,0-4.3,2.59,2.59,0,0,0-3.7,0,2.88,2.88,0,0,0-.78,2.14,2.92,2.92,0,0,0,.79,2.16A2.56,2.56,0,0,0,452.07,105.67Z"
     id="path101" />
  <path
     class="cls-4"
     d="M458.08,108.51V95.18h2.54v13.32h-2.54Z"
     id="path103" />
  <path
     class="cls-4"
     d="M469.39,107.25a5.76,5.76,0,0,1,0-7.45,4.73,4.73,0,0,1,3.55-1.4,5.07,5.07,0,0,1,3,.88,4.27,4.27,0,0,1,1.64,2.5h-2.74a1.89,1.89,0,0,0-1.94-1.24,2.05,2.05,0,0,0-1.72.8,4.16,4.16,0,0,0,0,4.38,2.05,2.05,0,0,0,1.72.8,1.91,1.91,0,0,0,1.94-1.26h2.74a4.48,4.48,0,0,1-1.67,2.48,4.91,4.91,0,0,1-3,.92A4.73,4.73,0,0,1,469.39,107.25Z"
     id="path105" />
  <path
     class="cls-4"
     d="M480.16,107.2a5.77,5.77,0,0,1,0-7.38,4.42,4.42,0,0,1,3.38-1.43,3.49,3.49,0,0,1,3.13,1.69V98.53h2.52v10h-2.52v-1.67a3.53,3.53,0,0,1-3.15,1.82A4.38,4.38,0,0,1,480.16,107.2Zm5.72-1.53a3.32,3.32,0,0,0,0-4.3,2.59,2.59,0,0,0-3.7,0,2.88,2.88,0,0,0-.78,2.14,2.92,2.92,0,0,0,.79,2.16A2.56,2.56,0,0,0,485.88,105.67Z"
     id="path107" />
  <path
     class="cls-4"
     d="M494.43,98.53v1.76a3.16,3.16,0,0,1,2.92-1.91V101h-0.63a2.35,2.35,0,0,0-1.71.57,2.69,2.69,0,0,0-.58,2v5h-2.54v-10h2.54Z"
     id="path109" />
  <path
     class="cls-4"
     d="M503.36,108.65a4.72,4.72,0,0,1-3.55-1.41,5.14,5.14,0,0,1-1.37-3.74,5.06,5.06,0,0,1,1.38-3.72,4.79,4.79,0,0,1,3.57-1.4A5,5,0,0,1,507,99.75a4.82,4.82,0,0,1,1.4,3.63,6.18,6.18,0,0,1-.07,1H501a2.37,2.37,0,0,0,.72,1.57,2.24,2.24,0,0,0,1.6.59,2.1,2.1,0,0,0,1.94-1.08H508a4.38,4.38,0,0,1-1.67,2.32A5,5,0,0,1,503.36,108.65Zm1.67-7.53a2.38,2.38,0,0,0-1.63-.59,2.25,2.25,0,0,0-1.59.59,2.51,2.51,0,0,0-.76,1.58h4.72A2.17,2.17,0,0,0,505,101.12Z"
     id="path111" />
  <path
     class="cls-2"
     d="M147.23,77.89c-0.11,39-32.34,70.7-72,70.74S3.53,117.06,3.63,78,36,7.32,75.62,7.29,147.33,38.86,147.23,77.89Z"
     id="path163" />
  <path
     class="cls-4"
     d="M143.14,78.15c-0.1,36.67-30.38,66.42-67.63,66.45S8.14,114.94,8.24,78.28,38.62,11.86,75.87,11.82,143.24,41.49,143.14,78.15Z"
     id="path165" />
  <path
     class="cls-1"
     d="M88.45,50.31s-8.71,2.26-16.57-2-12.6-1.91-15.6,2.15-2.79,14.37-.45,22.82,7,25.61,8.28,33.14,5.61-.2,6-9,1-17.46,3.22-20.37c4.1-5.3,10.5-.43,10.11,11.8-0.33,10.22-1.28,26.68,2.75,22.84,2.36-2.25,7.28-27.2,10-36.27s7-20.65,2.52-28.3c-2.75-4.68-14.3-5.51-20.65-1.51,0,0-1.69,1.15-.79-0.94s5.68-4.64,11.9-4.46,9.85,1.69,13.08,4.69,3.53,12.7-2.59,29.38-7.33,29.4-10.31,36.19c-2.24,5.12-7.06,5.47-8.18-.83-1.3-7.34.2-20.94-1-25.72s-4.25-3.5-5-1.86-2.28,4.37-3,14.62S69.81,113.14,67.39,114c-2.57.86-5.18-3-6.44-8.17s-5.12-21.79-9-30.57-6.85-21.06-2.46-28.93c4.76-8.53,15.26-5.86,20.87-1.51s9.09,5,11.81,5S90.71,49.4,88.45,50.31Z"
     id="path167" />
  <path
     class="cls-3"
     d="M83.26,26.41c-0.09,4.6-3.6,8.28-7.84,8.21s-7.6-3.86-7.51-8.46,3.6-8.28,7.84-8.21S83.35,21.8,83.26,26.41Z"
     id="path169" />
  <path
     class="cls-2"
     d="M35.46,71.27c-0.9,4.07,1.19,7.87,4.65,8.5s7-2.16,7.89-6.23-1.19-7.87-4.65-8.5S36.35,67.2,35.46,71.27Z"
     id="path171" />
  <path
     class="cls-2"
     d="M52.09,84.77c-7-5-11-7.95-13.26,8.16-2,13.93-2.63,27.88-12.24,24.36,1.26,5.14,6.8,1.93,8.54.48,4.18-3.47,5.51-9.51,6.51-17.86,0.72-6,.28-14.87,3.89-16.7C47.67,82.13,52.16,88.92,52.09,84.77Z"
     id="path173" />
  <path
     class="cls-2"
     d="M113.54,79.34c0.54,3.34-1.33,6.36-4.18,6.74s-5.59-2-6.13-5.37,1.33-6.36,4.18-6.74S113,76,113.54,79.34Z"
     id="path175" />
  <path
     class="cls-2"
     d="M102,90.45c5.94-3.82,9.32-6,10.41,7.15,0.94,11.41.84,22.79,8.82,20.29-1.27,4.13-5.62,1.31-7,.07-3.24-3-4-8-4.47-14.78-0.31-4.92.47-12.11-2.38-13.74C105.74,88.47,101.77,93.83,102,90.45Z"
     id="path177" />
  <path
     class="cls-3"
     d="M61.11,35.64A19.74,19.74,0,0,0,44.78,53.5c-0.26,3.66.5,8,4.24,9.62,5.54,2.44,0-3.3-.67-4.63C44.75,51.23,50,42,57.66,40.84c3.41-.51,12.56,2.42,14.12-2,1.86-5.26-8.25-3.67-10.66-3.21l1-.18-1,.18h0Z"
     id="path179" />
  <path
     class="cls-3"
     d="M106.92,52.29a19,19,0,0,0-12-15.37c-3-1.19-15.05-5-15.67,1-0.44,4.3,5.41,2.66,7.61,2.53,4-.23,8.26.2,11.83,2.18s5.26,4.22,5.63,8.2c0.32,3.44.25,7-2.14,9.69-0.54.61-2.86,1.87-2.06,2.8s3-.33,3.73-0.8C107,60.34,106.92,55.73,106.92,52.29Z"
     id="path181" />
</svg>
